<svg xmlns="http://www.w3.org/2000/svg" width="1600" height="900" viewBox="0 0 1600 900" fill="none">
  <rect width="1600" height="900" rx="40" fill="#F6F0E8"/>
  <circle cx="366" cy="256" r="144" fill="#E8D8C2"/>
  <circle cx="1234" cy="256" r="144" fill="#D7E5D8"/>
  <circle cx="366" cy="644" r="144" fill="#DDE4F2"/>
  <circle cx="1234" cy="644" r="144" fill="#F1DCCF"/>
  <path d="M543 256H1048" stroke="#5B5249" stroke-width="18" stroke-linecap="round"/>
  <path d="M1228 411V493" stroke="#5B5249" stroke-width="18" stroke-linecap="round"/>
  <path d="M1048 644H543" stroke="#5B5249" stroke-width="18" stroke-linecap="round"/>
  <path d="M372 493V411" stroke="#5B5249" stroke-width="18" stroke-linecap="round"/>
  <path d="M1030 219L1092 256L1030 293" fill="#5B5249"/>
  <path d="M1197 475L1234 537L1271 475" fill="#5B5249"/>
  <path d="M570 607L508 644L570 681" fill="#5B5249"/>
  <path d="M329 425L366 363L403 425" fill="#5B5249"/>
  <circle cx="366" cy="256" r="62" fill="#5B5249" opacity=".12"/>
  <circle cx="1234" cy="256" r="62" fill="#5B5249" opacity=".12"/>
  <circle cx="366" cy="644" r="62" fill="#5B5249" opacity=".12"/>
  <circle cx="1234" cy="644" r="62" fill="#5B5249" opacity=".12"/>
  <path d="M346 234H386V278H346V234Z" fill="#5B5249"/>
  <path d="M1214 214H1254V298H1214V214Z" fill="#5B5249"/>
  <path d="M1214 624H1254V664H1214V624Z" fill="#5B5249"/>
  <path d="M1214 680H1254V720H1214V680Z" fill="#5B5249"/>
  <path d="M332 620H400L388 716H344L332 620Z" fill="#5B5249"/>
</svg>
